<svg xmlns="http://www.w3.org/2000/svg" viewBox="0 0 100 100">
  <!-- Background circle -->
  <circle cx="50" cy="50" r="48" fill="#E3F2FD" stroke="#2196F3" stroke-width="2"/>
  
  <!-- Nurse cap -->
  <path d="M 35 28 Q 35 25 38 25 L 62 25 Q 65 25 65 28 L 65 32 L 35 32 Z" fill="#FFFFFF" stroke="#2196F3" stroke-width="1.5"/>
  <rect x="48" y="27" width="4" height="3" fill="#E91E63"/>
  
  <!-- Head -->
  <circle cx="50" cy="42" r="10" fill="#FFE0B2" stroke="#2196F3" stroke-width="1.5"/>
  
  <!-- Body -->
  <path d="M 38 52 L 38 75 L 42 75 L 42 82 L 45 82 L 45 75 L 48 75 L 48 82 L 52 82 L 52 75 L 55 75 L 55 82 L 58 82 L 58 75 L 62 75 L 62 52 Z" fill="#2196F3" stroke="#1976D2" stroke-width="1.5"/>
  
  <!-- Arms -->
  <path d="M 38 55 L 32 60 L 35 65 L 38 62" fill="#2196F3" stroke="#1976D2" stroke-width="1.5"/>
  <path d="M 62 55 L 68 60 L 65 65 L 62 62" fill="#2196F3" stroke="#1976D2" stroke-width="1.5"/>
  
  <!-- Medical cross on body -->
  <rect x="48" y="57" width="4" height="12" fill="#FFFFFF"/>
  <rect x="44" y="61" width="12" height="4" fill="#FFFFFF"/>
  
  <!-- Stethoscope -->
  <path d="M 45 58 Q 42 62 42 65 Q 42 68 45 68 Q 48 68 48 65 Q 48 62 45 58" fill="none" stroke="#E91E63" stroke-width="1.5"/>
  <path d="M 55 58 Q 58 62 58 65 Q 58 68 55 68 Q 52 68 52 65 Q 52 62 55 58" fill="none" stroke="#E91E63" stroke-width="1.5"/>
  <path d="M 45 58 Q 50 55 55 58" fill="none" stroke="#E91E63" stroke-width="1.5"/>
  <circle cx="50" cy="54" r="2" fill="#E91E63"/>
  
  <!-- Heart icon (triage symbol) -->
  <path d="M 18 20 Q 18 16 22 16 Q 25 16 27 19 Q 29 16 32 16 Q 36 16 36 20 Q 36 25 27 32 Q 18 25 18 20 Z" fill="#E91E63" stroke="#C2185B" stroke-width="0.5"/>
</svg>
